<svg width="36" height="36" viewBox="0 0 36 36" fill="none" xmlns="http://www.w3.org/2000/svg">
<path d="M9.81818 36C8.45455 36 7.29545 35.3438 6.34091 34.0312C5.38636 32.7188 4.90909 31.125 4.90909 29.25H0.818182L1.55455 24.75H6.17727C6.64091 24.0375 7.18636 23.4844 7.81364 23.0906C8.44091 22.6969 9.10909 22.5 9.81818 22.5C10.5273 22.5 11.1955 22.6969 11.8227 23.0906C12.45 23.4844 12.9955 24.0375 13.4591 24.75H20.2909L23.7273 4.5H9.08182L9.77727 0H27.8182L26.3045 9H31.0909L36 18L34.3636 29.25H31.0909C31.0909 31.125 30.6136 32.7188 29.6591 34.0312C28.7045 35.3438 27.5455 36 26.1818 36C24.8182 36 23.6591 35.3438 22.7045 34.0312C21.75 32.7188 21.2727 31.125 21.2727 29.25H14.7273C14.7273 31.125 14.25 32.7188 13.2955 34.0312C12.3409 35.3438 11.1818 36 9.81818 36ZM24.4227 20.25H32.3182L32.4818 19.0688L29.4545 13.5H25.5682L24.4227 20.25ZM23.7273 4.5L20.2909 24.75L20.3727 24.3562L23.7273 4.5ZM4.09091 20.25V13.5H0L5.72727 2.25V9H9.81818L4.09091 20.25ZM9.81818 31.5C10.2818 31.5 10.6705 31.2844 10.9841 30.8531C11.2977 30.4219 11.4545 29.8875 11.4545 29.25C11.4545 28.6125 11.2977 28.0781 10.9841 27.6469C10.6705 27.2156 10.2818 27 9.81818 27C9.35454 27 8.96591 27.2156 8.65227 27.6469C8.33864 28.0781 8.18182 28.6125 8.18182 29.25C8.18182 29.8875 8.33864 30.4219 8.65227 30.8531C8.96591 31.2844 9.35454 31.5 9.81818 31.5ZM26.1818 31.5C26.6455 31.5 27.0341 31.2844 27.3477 30.8531C27.6614 30.4219 27.8182 29.8875 27.8182 29.25C27.8182 28.6125 27.6614 28.0781 27.3477 27.6469C27.0341 27.2156 26.6455 27 26.1818 27C25.7182 27 25.3295 27.2156 25.0159 27.6469C24.7023 28.0781 24.5455 28.6125 24.5455 29.25C24.5455 29.8875 24.7023 30.4219 25.0159 30.8531C25.3295 31.2844 25.7182 31.5 26.1818 31.5Z" fill="#CCCCCC"/>
</svg>
