<svg width="36" height="36" viewBox="0 0 36 36" fill="none" xmlns="http://www.w3.org/2000/svg">
<path d="M0 36V30.4C0 29.3 0.232877 28.2667 0.69863 27.3C1.16438 26.3333 1.80822 25.6 2.63014 25.1C4.0274 24.2333 5.60274 23.5 7.35616 22.9C9.10959 22.3 11.0411 22 13.1507 22C15.2603 22 17.1918 22.3 18.9452 22.9C20.6986 23.5 22.274 24.2333 23.6712 25.1C24.4932 25.6 25.137 26.3333 25.6027 27.3C26.0685 28.2667 26.3014 29.3 26.3014 30.4V36H0ZM3.28767 32H23.0137V30.4C23.0137 30.0333 22.9384 29.7 22.7877 29.4C22.637 29.1 22.4384 28.8667 22.1918 28.7C21.2055 28.1 19.9384 27.5 18.3904 26.9C16.8425 26.3 15.0959 26 13.1507 26C11.2055 26 9.4589 26.3 7.91096 26.9C6.36301 27.5 5.09589 28.1 4.10959 28.7C3.86301 28.8667 3.66438 29.1 3.5137 29.4C3.36301 29.7 3.28767 30.0333 3.28767 30.4V32ZM13.1507 20C11.3425 20 9.79452 19.2167 8.50685 17.65C7.21918 16.0833 6.57534 14.2 6.57534 12H6.16438C5.91781 12 5.71918 11.9083 5.56849 11.725C5.41781 11.5417 5.34247 11.3 5.34247 11C5.34247 10.7 5.41781 10.4583 5.56849 10.275C5.71918 10.0917 5.91781 10 6.16438 10H6.57534C6.57534 8.5 6.87671 7.15 7.47945 5.95C8.08219 4.75 8.87671 3.8 9.86301 3.1V5C9.86301 5.3 9.93836 5.54167 10.089 5.725C10.2397 5.90833 10.4384 6 10.6849 6C10.9315 6 11.1301 5.90833 11.2808 5.725C11.4315 5.54167 11.5068 5.3 11.5068 5V2.3C11.7534 2.2 12.0137 2.125 12.2877 2.075C12.5616 2.025 12.8493 2 13.1507 2C13.4521 2 13.7397 2.025 14.0137 2.075C14.2877 2.125 14.5479 2.2 14.7945 2.3V5C14.7945 5.3 14.8699 5.54167 15.0205 5.725C15.1712 5.90833 15.3699 6 15.6164 6C15.863 6 16.0616 5.90833 16.2123 5.725C16.363 5.54167 16.4384 5.3 16.4384 5V3.1C17.4247 3.8 18.2192 4.75 18.8219 5.95C19.4247 7.15 19.726 8.5 19.726 10H20.137C20.3836 10 20.5822 10.0917 20.7329 10.275C20.8836 10.4583 20.9589 10.7 20.9589 11C20.9589 11.3 20.8836 11.5417 20.7329 11.725C20.5822 11.9083 20.3836 12 20.137 12H19.726C19.726 14.2 19.0822 16.0833 17.7945 17.65C16.5068 19.2167 14.9589 20 13.1507 20ZM13.1507 16C14.0548 16 14.8288 15.6083 15.4726 14.825C16.1164 14.0417 16.4384 13.1 16.4384 12H9.86301C9.86301 13.1 10.1849 14.0417 10.8288 14.825C11.4726 15.6083 12.2466 16 13.1507 16ZM25.4795 24L25.2329 22.5C25.0685 22.4333 24.911 22.3583 24.7603 22.275C24.6096 22.1917 24.4658 22.0667 24.3288 21.9L23.1781 22.4L22.3562 20.6L23.2603 19.6V18.4L22.3562 17.4L23.1781 15.6L24.3288 16.1C24.4384 15.9667 24.5753 15.85 24.7397 15.75C24.9041 15.65 25.0685 15.5667 25.2329 15.5L25.4795 14H27.1233L27.3699 15.5C27.5342 15.5667 27.6986 15.65 27.863 15.75C28.0274 15.85 28.1644 15.9667 28.274 16.1L29.4247 15.6L30.2466 17.4L29.3425 18.4V19.6L30.2466 20.6L29.4247 22.4L28.274 21.9C28.137 22.0667 27.9932 22.1917 27.8425 22.275C27.6918 22.3583 27.5342 22.4333 27.3699 22.5L27.1233 24H25.4795ZM26.3014 20.5C26.6301 20.5 26.9178 20.35 27.1644 20.05C27.411 19.75 27.5342 19.4 27.5342 19C27.5342 18.6 27.411 18.25 27.1644 17.95C26.9178 17.65 26.6301 17.5 26.3014 17.5C25.9726 17.5 25.6849 17.65 25.4384 17.95C25.1918 18.25 25.0685 18.6 25.0685 19C25.0685 19.4 25.1918 19.75 25.4384 20.05C25.6849 20.35 25.9726 20.5 26.3014 20.5ZM29.2603 14L28.9315 11.9C28.6849 11.8 28.4589 11.675 28.2534 11.525C28.0479 11.375 27.863 11.2 27.6986 11L25.9726 11.7L24.8219 9.3L26.2192 7.8C26.1644 7.63333 26.137 7.5 26.137 7.4V6.6C26.137 6.5 26.1644 6.36667 26.2192 6.2L24.8219 4.7L25.9726 2.3L27.6986 3C27.863 2.8 28.0479 2.625 28.2534 2.475C28.4589 2.325 28.6849 2.2 28.9315 2.1L29.2603 0H31.5616L31.8904 2.1C32.137 2.2 32.363 2.325 32.5685 2.475C32.774 2.625 32.9589 2.8 33.1233 3L34.8493 2.3L36 4.7L34.6027 6.2C34.6575 6.36667 34.6849 6.5 34.6849 6.6V7.4C34.6849 7.5 34.6575 7.63333 34.6027 7.8L36 9.3L34.8493 11.7L33.1233 11C32.9589 11.2 32.774 11.375 32.5685 11.525C32.363 11.675 32.137 11.8 31.8904 11.9L31.5616 14H29.2603ZM30.411 9.5C30.9863 9.5 31.4726 9.25833 31.8699 8.775C32.2671 8.29167 32.4658 7.7 32.4658 7C32.4658 6.3 32.2671 5.70833 31.8699 5.225C31.4726 4.74167 30.9863 4.5 30.411 4.5C29.8356 4.5 29.3493 4.74167 28.9521 5.225C28.5548 5.70833 28.3562 6.3 28.3562 7C28.3562 7.7 28.5548 8.29167 28.9521 8.775C29.3493 9.25833 29.8356 9.5 30.411 9.5Z" fill="#CCCCCC"/>
</svg>
