<svg width="36" height="36" viewBox="0 0 36 36" fill="none" xmlns="http://www.w3.org/2000/svg">
<path d="M31.8704 36L21.2308 25.0652L25.3117 20.871L35.9514 31.8058L31.8704 36ZM5.05263 36L0.97166 31.8058L14.3806 18.025L11.0769 14.6297L9.7166 16.0277L7.23887 13.4813V17.5756L5.87854 18.9736L0 12.932L1.36032 11.534H5.34413L2.91498 9.03745L9.81377 1.9473C10.4615 1.28155 11.1579 0.79889 11.9028 0.499307C12.6478 0.199723 13.4089 0.0499307 14.1862 0.0499307C14.9636 0.0499307 15.7247 0.199723 16.4696 0.499307C17.2146 0.79889 17.9109 1.28155 18.5587 1.9473L14.0891 6.54092L16.5182 9.03745L15.1579 10.4355L18.4615 13.8308L22.834 9.33703C22.7045 8.97087 22.5992 8.58807 22.5182 8.18863C22.4372 7.78918 22.3968 7.38974 22.3968 6.99029C22.3968 5.02635 23.0526 3.37032 24.3644 2.02219C25.6761 0.674064 27.2875 0 29.1984 0C29.6842 0 30.1458 0.0499307 30.583 0.149792C31.0202 0.249653 31.4656 0.399445 31.919 0.599168L27.1093 5.5423L30.6073 9.13731L35.417 4.19418C35.6437 4.66019 35.7976 5.11789 35.8785 5.56727C35.9595 6.01664 36 6.49099 36 6.99029C36 8.95423 35.3441 10.6103 34.0324 11.9584C32.7206 13.3065 31.1093 13.9806 29.1984 13.9806C28.8097 13.9806 28.4211 13.9473 28.0324 13.8807C27.6437 13.8141 27.2713 13.6976 26.915 13.5312L5.05263 36Z" fill="#CCCCCC"/>
</svg>
